<?xml version="1.0" encoding="UTF-8"?>
<svg version="1.1" xmlns="http://www.w3.org/2000/svg" width="1600" height="1600">
<path d="M0 0 C528 0 1056 0 1600 0 C1600 528 1600 1056 1600 1600 C1072 1600 544 1600 0 1600 C0 1072 0 544 0 0 Z " fill="#000000" transform="translate(0,0)"/>
<path d="M0 0 C5.63631008 5.10818243 10.97393462 10.53388802 16.32696533 15.93530273 C18.43776194 18.06455681 20.55665348 20.18549823 22.67681885 22.30541992 C24.04903888 23.68255071 25.42080038 25.06013858 26.79205322 26.43823242 C27.4119664 27.05925842 28.03187958 27.68028442 28.670578 28.32012939 C32.36259289 32.05173518 35.8501574 35.90823878 39.28437805 39.87738037 C41.84772763 42.77436526 44.57154566 45.49113686 47.32720947 48.20385742 C47.89999634 48.77285767 48.4727832 49.34185791 49.06292725 49.92810059 C50.86731198 51.72043724 52.67493307 53.50945058 54.48345947 55.29760742 C67.7995071 68.46367543 67.7995071 68.46367543 71.45220947 72.76635742 C76.88107748 79.15286426 83.02907316 84.90770905 88.98345947 90.79760742 C102.83080418 104.49498089 102.83080418 104.49498089 108.04205322 110.63354492 C113.09231564 116.26301248 118.60847506 121.48083584 123.98345947 126.79760742 C137.86026132 140.524119 137.86026132 140.524119 143.07330322 146.66479492 C147.95214054 152.11233107 153.28500389 157.15770243 158.48345947 162.29760742 C171.7995071 175.46367543 171.7995071 175.46367543 175.45220947 179.76635742 C180.88107748 186.15286426 187.02907316 191.90770905 192.98345947 197.79760742 C206.83080418 211.49498089 206.83080418 211.49498089 212.04205322 217.63354492 C217.09231564 223.26301248 222.60847506 228.48083584 227.98345947 233.79760742 C242.07423888 247.73577911 242.07423888 247.73577911 247.24273682 253.81665039 C250.78005668 257.84215016 254.58126152 261.62016373 258.3616333 265.41601562 C259.79042809 266.85453838 261.20815351 268.30341824 262.6260376 269.75268555 C279.64621269 286.86735155 300.43497349 296.93025518 324.79595947 297.11010742 C349.30046911 297.11010742 369.76997534 288.24785516 387.67095947 271.61010742 C406.80163802 251.68231727 411.6185604 226.81439114 411.25299072 200.19995117 C410.69439008 178.13935346 399.25680383 158.46467163 383.82598877 143.15185547 C374.5511301 134.36067715 364.06870603 128.83662403 351.98345947 124.79760742 C350.73049072 124.33741211 350.73049072 124.33741211 349.45220947 123.86791992 C330.79195224 117.15789592 307.30596394 120.37942697 289.55767822 128.33276367 C277.35120719 134.62963886 267.89606181 143.59223445 258.35845947 153.29760742 C257.34461339 154.32151729 256.33029286 155.34495759 255.31549072 156.36791992 C252.86600827 158.83911448 250.42293271 161.3165268 247.98345947 163.79760742 C245.09551962 162.48910106 243.02995773 161.09314262 240.79473877 158.85180664 C239.89811775 157.95980057 239.89811775 157.95980057 238.98338318 157.04977417 C238.34790054 156.40710602 237.71241791 155.76443787 237.05767822 155.10229492 C236.39186234 154.43602081 235.72604645 153.7697467 235.04005432 153.08328247 C233.63152765 151.67173682 232.22543015 150.25776361 230.82159424 148.84155273 C228.69434798 146.69619506 226.55935505 144.55880308 224.4229126 142.42260742 C223.05069798 141.04547124 221.67893885 139.66788103 220.30767822 138.28979492 C219.67826828 137.65927216 219.04885834 137.02874939 218.40037537 136.37911987 C214.67600726 132.61562006 211.15469633 128.7305029 207.69129944 124.72659302 C205.05626049 121.75034684 202.25189269 118.96116509 199.42095947 116.17260742 C198.82597656 115.58141113 198.23099365 114.99021484 197.61798096 114.38110352 C195.7422629 112.51744242 193.86331045 110.657099 191.98345947 108.79760742 C178.13611476 95.10023396 178.13611476 95.10023396 172.92486572 88.96166992 C167.87460331 83.33220236 162.35844388 78.114379 156.98345947 72.79760742 C142.87459388 58.84154543 142.87459388 58.84154543 137.67437744 52.71557617 C134.0027679 48.55095524 129.9895638 44.70222554 126.04595947 40.79760742 C124.73401611 39.49243164 124.73401611 39.49243164 123.39556885 38.16088867 C121.26048498 36.03747193 119.12308742 33.91644365 116.98345947 31.79760742 C118.26742903 28.98174132 119.60797609 26.9213108 121.78985596 24.73242188 C122.63730629 23.87551506 122.63730629 23.87551506 123.50187683 23.001297 C124.11326004 22.39396225 124.72464325 21.7866275 125.35455322 21.16088867 C125.99151627 20.52201218 126.62847931 19.88313568 127.28474426 19.22489929 C128.63652785 17.87175534 129.99083793 16.52113133 131.34747314 15.17285156 C133.38921706 13.14168539 135.42023831 11.10025026 137.45025635 9.05737305 C144.65365109 1.84636144 151.92723401 -4.94243473 159.98345947 -11.20239258 C161.0334554 -12.05823888 162.08198293 -12.91589533 163.12799072 -13.77661133 C190.60396808 -35.54016001 222.18539603 -51.14588937 255.98345947 -60.20239258 C257.32614446 -60.57393274 258.66859318 -60.94632778 260.01080322 -61.31958008 C292.55104945 -70.25539941 328.55660594 -72.60508767 361.98345947 -67.20239258 C362.80104736 -67.07880371 363.61863525 -66.95521484 364.46099854 -66.82788086 C394.85726057 -62.16153993 423.89543008 -52.80419839 450.98345947 -38.20239258 C451.62509033 -37.8641748 452.26672119 -37.52595703 452.92779541 -37.17749023 C474.28661869 -25.88872702 493.64383424 -10.96754099 510.98345947 5.79760742 C511.63669189 6.42892578 512.28992432 7.06024414 512.96295166 7.71069336 C521.16311867 15.67932624 529.0361518 23.69167201 535.98345947 32.79760742 C536.89978644 33.96193734 537.81647715 35.12598106 538.73345947 36.28979492 C565.86526468 71.15436599 582.36594901 110.92593193 591.98345947 153.79760742 C592.33102295 155.30242676 592.33102295 155.30242676 592.68560791 156.83764648 C596.42035182 173.77347287 596.37200152 190.85031095 596.42095947 208.11010742 C596.42731415 209.26242859 596.43366882 210.41474976 596.44021606 211.60198975 C596.4926502 226.91575274 595.53484714 241.6948277 592.98345947 256.79760742 C592.79549805 257.95059326 592.60753662 259.1035791 592.41387939 260.29150391 C588.05095954 285.42881443 580.03725755 309.83202996 568.98345947 332.79760742 C568.55839111 333.68351562 568.13332275 334.56942383 567.69537354 335.48217773 C558.35388192 354.67827524 546.616805 372.38655363 532.98345947 388.79760742 C532.52294189 389.35963867 532.06242432 389.92166992 531.58795166 390.50073242 C520.61536577 403.85735514 508.65436197 416.18592786 494.98345947 426.79760742 C493.89473908 427.67467869 492.80757724 428.55368711 491.72174072 429.43432617 C483.46899353 436.08841036 474.91594655 442.0946667 465.98345947 447.79760742 C465.12494385 448.35762451 465.12494385 448.35762451 464.24908447 448.92895508 C437.34151773 466.4173306 404.56409002 478.32232782 372.98345947 483.79760742 C371.91780762 484.00063477 371.91780762 484.00063477 370.83062744 484.20776367 C339.9834733 489.89670923 304.58211907 489.56086152 273.98345947 482.79760742 C272.85182373 482.55623047 271.72018799 482.31485352 270.55426025 482.06616211 C228.53791987 472.9209217 190.07467995 454.26482684 156.98345947 426.79760742 C156.02052979 426.02030273 155.0576001 425.24299805 154.06549072 424.44213867 C145.94284614 417.77249662 138.47080116 410.47333254 131.04595947 403.04760742 C130.5496402 402.55219452 130.05332092 402.05678162 129.54196167 401.5463562 C120.63110681 392.63365801 120.63110681 392.63365801 116.66705322 387.96948242 C111.16455462 381.55304282 104.98844777 375.73755974 98.98345947 369.79760742 C85.13611476 356.10023396 85.13611476 356.10023396 79.92486572 349.96166992 C74.87460331 344.33220236 69.35844388 339.114379 63.98345947 333.79760742 C50.10665762 320.07109585 50.10665762 320.07109585 44.89361572 313.93041992 C40.01477841 308.48288378 34.68191505 303.43751242 29.48345947 298.29760742 C16.16741184 285.13153941 16.16741184 285.13153941 12.51470947 280.82885742 C7.08584147 274.44235059 0.93784578 268.6875058 -5.01654053 262.79760742 C-18.86388524 249.10023396 -18.86388524 249.10023396 -24.07513428 242.96166992 C-29.12539669 237.33220236 -34.64155612 232.114379 -40.01654053 226.79760742 C-53.89334238 213.07109585 -53.89334238 213.07109585 -59.10638428 206.93041992 C-63.98522159 201.48288378 -69.31808495 196.43751242 -74.51654053 191.29760742 C-76.90499035 188.93605889 -79.28989048 186.57100442 -81.67279053 184.20385742 C-82.20529419 183.6796521 -82.73779785 183.15544678 -83.28643799 182.61535645 C-86.77598364 179.14808738 -90.02379517 175.52584554 -93.24285889 171.80728149 C-96.08285974 168.58941198 -99.07890597 165.53363403 -102.09466553 162.48120117 C-103.07279205 161.49096703 -103.07279205 161.49096703 -104.07067871 160.48072815 C-105.44065711 159.09703196 -106.81211442 157.71479857 -108.18499756 156.33398438 C-109.5700442 154.93740381 -110.95060975 153.53636452 -112.32659912 152.13085938 C-120.01621161 144.27695462 -127.24985063 137.03074755 -137.01654053 131.79760742 C-137.879729 131.32291016 -138.74291748 130.84821289 -139.63226318 130.35913086 C-159.40911434 119.71997518 -181.50042928 118.38557944 -203.01654053 123.79760742 C-225.48418565 130.56019521 -242.45105929 145.03857322 -253.93841553 165.16479492 C-264.72005438 185.48403738 -268.86682092 209.34414637 -262.44573975 231.79321289 C-258.10416273 245.94968086 -251.93338769 258.6691154 -242.01654053 269.79760742 C-241.35138428 270.55686523 -240.68622803 271.31612305 -240.00091553 272.09838867 C-230.14416578 282.66701478 -217.64219004 289.37134767 -204.01654053 293.79760742 C-203.19355469 294.06686035 -202.37056885 294.33611328 -201.52264404 294.61352539 C-194.70084263 296.67231617 -188.43477108 297.27493549 -181.32904053 297.17260742 C-180.27885742 297.16028076 -179.22867432 297.1479541 -178.14666748 297.13525391 C-145.75641867 296.4425073 -125.65094902 279.99397589 -103.77557373 257.71777344 C-101.95889656 255.91099994 -101.95889656 255.91099994 -101.01654053 253.79760742 C-97.13416057 255.35233624 -95.06691525 257.74488396 -92.32904053 260.86010742 C-84.86532775 269.19448363 -76.86753877 277.00034149 -68.91424561 284.86230469 C-60.10721634 293.58911487 -60.10721634 293.58911487 -56.62982178 297.68432617 C-51.16458206 304.0921061 -44.99937222 309.87957174 -39.01654053 315.79760742 C-25.16919582 329.49498089 -25.16919582 329.49498089 -19.95794678 335.63354492 C-14.90768436 341.26301248 -9.39152494 346.48083584 -4.01654053 351.79760742 C10.26907229 365.92850241 10.26907229 365.92850241 15.4800415 372.06713867 C18.1394513 375.12818067 21.03366768 377.95340953 23.92095947 380.79760742 C24.5094165 381.38155273 25.09787354 381.96549805 25.7041626 382.56713867 C27.1282574 383.97965547 28.55551197 385.38898552 29.98345947 386.79760742 C25.53932361 393.27559853 20.30590947 398.78510177 14.73565674 404.30615234 C13.30875483 405.72240754 11.89277736 407.14894447 10.4776001 408.5769043 C4.28687612 414.75046757 -2.19062771 420.3434158 -9.01654053 425.79760742 C-10.04499992 426.67173138 -11.06862786 427.55164523 -12.08294678 428.44213867 C-52.57245821 463.60908522 -111.23477431 486.6127879 -164.88372803 487.03588867 C-166.42008911 487.05064743 -166.42008911 487.05064743 -167.98748779 487.06570435 C-210.45675324 487.38974089 -210.45675324 487.38974089 -231.01654053 482.79760742 C-232.14527588 482.55623047 -233.27401123 482.31485352 -234.43695068 482.06616211 C-272.39469526 473.80657351 -306.8683279 457.88195328 -338.01654053 434.79760742 C-338.93862305 434.11529053 -338.93862305 434.11529053 -339.8793335 433.41918945 C-354.74984364 422.31398174 -369.0202226 409.32313257 -381.09970951 395.21365356 C-385.28430575 390.42142535 -389.74333513 385.93492732 -394.24833679 381.44555664 C-395.15678284 380.53625617 -396.06522888 379.6269557 -397.0012036 378.69010067 C-399.50290023 376.18618383 -402.00767731 373.68536913 -404.51300061 371.18508172 C-407.22160809 368.48081435 -409.92730268 365.7736352 -412.63336182 363.06681824 C-417.3155915 358.38406557 -421.99964078 353.70313951 -426.68494987 349.02346802 C-433.45902174 342.25754173 -440.23031302 335.48883822 -447.00094051 328.71946537 C-457.98733819 317.73525341 -468.97596469 306.75327398 -479.96600342 295.77270508 C-490.63840258 285.10949245 -501.30974535 274.44522444 -511.97967529 263.77954102 C-512.63796225 263.12151678 -513.29624921 262.46349255 -513.97448426 261.78552818 C-517.27708679 258.48423074 -520.57966862 255.1829126 -523.88224018 251.88158417 C-551.25713316 224.51704885 -578.63564786 197.15613939 -606.01654053 169.79760742 C-602.36123841 165.44319751 -598.6127947 161.26952463 -594.5874939 157.24830627 C-594.07600685 156.73596481 -593.56451981 156.22362334 -593.03753316 155.69575638 C-591.34490628 154.00149916 -589.64876155 152.31081076 -587.95257568 150.62011719 C-586.72981637 149.3976403 -585.50727792 148.17494248 -584.28494263 146.95204163 C-580.98185303 143.64866623 -577.67569886 140.34837372 -574.36896944 137.0486424 C-570.90784862 133.59379123 -567.44957712 130.13609027 -563.99099731 126.67869568 C-557.44833127 120.13913232 -550.90312124 113.60212133 -544.3569845 107.06603235 C-536.90156034 99.62180237 -529.44899021 92.17471797 -521.9966538 84.72739708 C-506.67311414 69.41429775 -491.34600901 54.10477144 -476.01654053 38.79760742 C-471.92831476 42.24088068 -467.95969596 45.72997907 -464.18280029 49.51782227 C-463.30241592 50.39828217 -462.42203156 51.27874207 -461.51496887 52.18588257 C-460.58865158 53.11736115 -459.66233429 54.04883972 -458.70794678 55.00854492 C-457.73168067 55.98668009 -456.75519059 56.96459177 -455.77848816 57.94229126 C-453.22981475 60.49475141 -450.68416095 63.05020191 -448.13916016 65.60632324 C-445.53307435 68.22270656 -442.92409432 70.83620045 -440.31536865 73.44995117 C-435.21294935 78.56303988 -430.11372195 83.67929654 -425.01654053 88.79760742 C-423.08433115 86.2619819 -421.4310841 83.85330924 -420.02825928 80.98901367 C-411.21078353 63.40407404 -400.44838546 47.0449579 -388.01654053 31.79760742 C-387.60355713 31.28311035 -387.19057373 30.76861328 -386.76507568 30.23852539 C-380.13934521 22.02462361 -372.88867664 14.46894478 -365.45404053 6.98510742 C-364.59189941 6.11370117 -363.7297583 5.24229492 -362.8414917 4.34448242 C-354.25797033 -4.19759622 -344.97484355 -11.71359764 -335.14154053 -18.76489258 C-334.36761963 -19.32080078 -333.59369873 -19.87670898 -332.79632568 -20.44946289 C-326.37496223 -25.02114389 -319.83467198 -29.23950751 -313.01654053 -33.20239258 C-312.4276001 -33.55221191 -311.83865967 -33.90203125 -311.23187256 -34.26245117 C-226.6685119 -84.42565779 -115.03235908 -80.58660893 0 0 Z " fill="#FEFEFE" transform="translate(804.0165405273438,591.202392578125)"/>
</svg>
